# xmcd CD database file
#
# Track frame offsets:
#	150
#	22625
#	46180
#	60400
#	84115
#	112992
#	127080
#	145862
#	170722
#	190767
#	217095
#	232205
#	260877
#
# Disc length: 3854 seconds
#
# Revision: 0
# Processed by: cddbd v1.5.2PL0 Copyright (c) Steve Scherf et al.
# Submitted via: CDex 1.51
#
DISCID=b40f0c0d
DTITLE=Chucho Vades - Cancionero cubano
DYEAR=2005
DGENRE=Jazz
TTITLE0=Quiereme mucho
TTITLE1=Guajira
TTITLE2=Alma con alma
TTITLE3=Calle14
TTITLE4=Lorena
TTITLE5=Por nuestra cobardia
TTITLE6=Profecia
TTITLE7=Son 31
TTITLE8=Cosas del alma
TTITLE9=Tu mi delirio
TTITLE10=Realidad y fantasia
TTITLE11=Longina
TTITLE12=Reprise
EXTD=YEAR: 2005
EXTT0=
EXTT1=
EXTT2=
EXTT3=
EXTT4=
EXTT5=
EXTT6=
EXTT7=
EXTT8=
EXTT9=
EXTT10=
EXTT11=
EXTT12=
PLAYORDER=
